<svg width="24.999908" height="20.304443" viewBox="0 0 24.9999 20.3044" fill="none" xmlns="http://www.w3.org/2000/svg" xmlns:xlink="http://www.w3.org/1999/xlink">
	<desc>
			Created with Pixso.
	</desc>
	<defs/>
	<path id="Vector" d="M22.43 5.06C22.44 5.28 22.44 5.5 22.44 5.72C22.44 12.5 17.29 20.3 7.86 20.3C4.96 20.3 2.26 19.46 0 18C0.41 18.05 0.8 18.06 1.23 18.06C3.63 18.06 5.83 17.25 7.59 15.87C5.34 15.83 3.45 14.35 2.8 12.32C3.12 12.37 3.44 12.4 3.77 12.4C4.23 12.4 4.69 12.34 5.12 12.23C2.77 11.75 1.01 9.69 1.01 7.2L1.01 7.13C1.69 7.51 2.49 7.75 3.33 7.78C1.95 6.86 1.04 5.29 1.04 3.52C1.04 2.56 1.3 1.69 1.74 0.93C4.26 4.04 8.05 6.07 12.3 6.29C12.23 5.91 12.18 5.52 12.18 5.12C12.18 2.3 14.46 0 17.3 0C18.78 0 20.11 0.61 21.05 1.61C22.2 1.39 23.31 0.96 24.3 0.38C23.92 1.57 23.11 2.56 22.04 3.2C23.08 3.09 24.07 2.8 24.99 2.41C24.3 3.42 23.42 4.33 22.43 5.06Z" fill="#000000" fill-opacity="1.000000" fill-rule="nonzero"/>
</svg>
