<svg width="17.741730" height="17.707031" viewBox="0 0 17.7417 17.707" fill="none" xmlns="http://www.w3.org/2000/svg" xmlns:xlink="http://www.w3.org/1999/xlink">
	<desc>
			Created with Pixso.
	</desc>
	<defs/>
	<path id="in" d="M0.19 0.9Q0 1.27 0 1.74Q0 2.22 0.2 2.59Q0.32 2.82 0.52 3.01Q0.62 3.1 0.73 3.18Q1.2 3.5 1.89 3.5Q2.58 3.5 3.06 3.18Q3.17 3.1 3.27 3.01Q3.47 2.82 3.59 2.59Q3.79 2.22 3.79 1.74Q3.79 1.28 3.6 0.92Q3.48 0.68 3.28 0.49Q3.19 0.41 3.09 0.34Q2.62 0 1.89 0Q1.14 0 0.66 0.36Q0.58 0.42 0.5 0.49Q0.31 0.68 0.19 0.9ZM10.08 6.49L9.98 5.02L6.79 5.02L6.79 17.7L10.18 17.7L10.18 8.76Q10.53 8.17 11.05 7.86Q11.59 7.54 12.32 7.54Q13.41 7.54 13.88 8.03Q14.35 8.51 14.35 9.59L14.35 17.7L17.74 17.7L17.74 9.51Q17.71 7.16 16.73 5.97Q16.57 5.79 16.4 5.63Q15.43 4.79 13.73 4.79Q12.44 4.79 11.44 5.33Q10.68 5.75 10.08 6.49ZM0.19 17.7L3.59 17.7L3.59 5.02L0.19 5.02L0.19 17.7Z" fill="#000000" fill-opacity="1.000000" fill-rule="evenodd"/>
</svg>
