<svg width="21.887207" height="21.882324" viewBox="0 0 21.8872 21.8823" fill="none" xmlns="http://www.w3.org/2000/svg" xmlns:xlink="http://www.w3.org/1999/xlink">
	<desc>
			Created with Pixso.
	</desc>
	<defs/>
	<path id="Vector" d="M10.94 5.33C7.84 5.33 5.33 7.83 5.33 10.94C5.33 14.04 7.84 16.55 10.94 16.55C14.05 16.55 16.55 14.04 16.55 10.94C16.55 7.83 14.05 5.33 10.94 5.33ZM10.94 14.58C8.93 14.58 7.29 12.95 7.29 10.94C7.29 8.92 8.93 7.29 10.94 7.29C12.95 7.29 14.59 8.92 14.59 10.94C14.59 12.95 12.95 14.58 10.94 14.58ZM18.09 5.1C18.09 5.82 17.5 6.4 16.78 6.4C16.05 6.4 15.47 5.82 15.47 5.1C15.47 4.37 16.06 3.79 16.78 3.79C17.5 3.79 18.09 4.37 18.09 5.1ZM21.81 6.42C21.72 4.67 21.32 3.12 20.04 1.84C18.76 0.56 17.21 0.16 15.45 0.07C13.65 -0.03 8.23 -0.03 6.42 0.07C4.68 0.15 3.12 0.56 1.84 1.83C0.56 3.11 0.16 4.67 0.07 6.42C-0.03 8.23 -0.03 13.64 0.07 15.45C0.15 17.2 0.56 18.75 1.84 20.03C3.12 21.31 4.67 21.71 6.42 21.8C8.23 21.9 13.65 21.9 15.45 21.8C17.21 21.72 18.76 21.32 20.04 20.03C21.32 18.75 21.72 17.2 21.81 15.45C21.91 13.64 21.91 8.23 21.81 6.42ZM19.47 17.39C19.09 18.34 18.35 19.08 17.39 19.47C15.95 20.04 12.53 19.91 10.94 19.91C9.35 19.91 5.93 20.03 4.49 19.47C3.53 19.09 2.8 18.35 2.41 17.39C1.84 15.95 1.97 12.53 1.97 10.94C1.97 9.34 1.84 5.92 2.41 4.49C2.79 3.53 3.53 2.79 4.49 2.41C5.93 1.83 9.35 1.97 10.94 1.97C12.53 1.97 15.96 1.84 17.39 2.41C18.35 2.79 19.09 3.52 19.47 4.49C20.04 5.93 19.91 9.34 19.91 10.94C19.91 12.53 20.04 15.95 19.47 17.39Z" fill="#000000" fill-opacity="1.000000" fill-rule="nonzero"/>
</svg>
